<?xml version="1.0" encoding="UTF-8" standalone="no"?>
<svg
   version="1.1"
   width="986"
   height="247"
   id="svg351"
   sodipodi:docname="logo.svg"
   inkscape:version="1.3.2 (091e20e, 2023-11-25)"
   xmlns:inkscape="http://www.inkscape.org/namespaces/inkscape"
   xmlns:sodipodi="http://sodipodi.sourceforge.net/DTD/sodipodi-0.dtd"
   xmlns="http://www.w3.org/2000/svg"
   xmlns:svg="http://www.w3.org/2000/svg">
  <defs
     id="defs351" />
  <sodipodi:namedview
     id="namedview351"
     pagecolor="#ffffff"
     bordercolor="#000000"
     borderopacity="0.25"
     inkscape:showpageshadow="2"
     inkscape:pageopacity="0.0"
     inkscape:pagecheckerboard="0"
     inkscape:deskcolor="#d1d1d1"
     inkscape:zoom="0.68492719"
     inkscape:cx="615.39388"
     inkscape:cy="135.05085"
     inkscape:window-width="1440"
     inkscape:window-height="900"
     inkscape:window-x="0"
     inkscape:window-y="0"
     inkscape:window-maximized="0"
     inkscape:current-layer="svg351" />
  <path
     d="M 0,0 3.2104797,0.0136261 C 31.553289,0.36288485 59.899995,0.4206407 88.242187,0.8164062 l 2.985535,0.009933 c 7.156967,0.13015986 14.268048,0.7153269 19.522768,5.970047 4.2596,7.0993358 2.28718,14.6045238 0.74219,22.2617178 l -0.55619,2.837479 c -12.576104,63.917757 3.31288,-18.417233 -8.04205,40.382691 -0.61669,3.175636 -1.25656,6.346578 -1.89395,9.518112 l -0.6333,3.350342 c -1.253292,6.05692 -2.488567,9.932305 -7.116702,14.149658 -25.770851,4.673794 -55.934325,2.487254 -82.503662,2.372454 l -2.3476866,0.0232 C 3.6029437,101.64544 0.31713217,100.85093 -3.7495117,98.296387 -10.502368,88.488217 -11.716978,75.093485 -14.193848,63.554687 -18.450445,43.649135 -14.897262,60.008171 -19.399902,38.687256 -21.214056,28.049281 -26.502621,16.123609 -20.624512,6.0463867 -14.331662,0.02713908 -8.3100643,-0.12955924 0,0 Z m 35.250488,30.296387 v 2 16 c 5.684128,-5.737215 11.902443,-10.928181 16,-18 h -9 -2 c -1.666171,-0.04064 -3.333881,-0.04272 -5,0 z"
     fill="#FAFAFA"
     transform="translate(102.74951,21.703613)"
     id="path1"
     style="fill:#ffffff;fill-opacity:1"
     sodipodi:nodetypes="ccccccccccccccccccccccccc" />
  <path
     d="m 0,0 c 1.3594816,-0.0114364 2.7189213,-0.03175385 4.078125,-0.06152344 19.344269,-0.42309678 19.344269,-0.42309678 26.358643,6.10205074 4.915816,6.4524367 6.20651,14.3481867 7.811279,22.1296387 0.560957,2.602765 1.130948,5.203503 1.699219,7.804688 l 0.820556,3.81372 c 0.674858,2.985211 1.430415,5.912184 2.269287,8.854248 1.923947,6.849681 3.286201,13.818487 4.711792,20.784485 2.727098,13.278347 5.53406,26.543179 8.553986,39.758213 0.336416,1.48086 0.667681,2.9629 0.993591,4.4461 0.454071,2.06065 0.926753,4.11614 1.404694,6.17136 l 0.797851,3.52002 c 1.174584,3.28872 2.35241,4.80526 5.061524,6.97217 l 3,1 h 9 c 2.925896,0.10593 5.828314,0.14677 8.754883,0.14526 l 2.78395,0.0102 c 3.054778,0.01 6.109501,0.0114 9.164292,0.0125 2.116516,0.003 4.233028,0.007 6.349548,0.0101 4.4455,0.006 8.89098,0.008 13.33649,0.007 5.69759,-1e-4 11.39505,0.0135 17.09261,0.0308 4.37517,0.0111 8.75031,0.0132 13.12549,0.0126 2.10035,0.001 4.2007,0.006 6.30104,0.0133 2.93983,0.01 5.8794,0.007 8.81924,9e-4 l 2.63264,0.017 c 4.29656,-0.0224 7.77685,-0.14083 11.63982,-2.25994 3.52465,-4.2301 4.07822,-9.33468 5.00781,-14.60547 l 0.51804,-2.78914 c 0.54245,-2.92933 1.07139,-5.86089 1.59915,-8.79289 0.5373,-2.94222 1.07741,-5.883889 1.62057,-8.825031 0.33674,-1.827799 0.66963,-3.656309 0.99835,-5.485566 l 0.45578,-2.498733 0.39652,-2.201828 c 0.59061,-2.634867 1.25084,-3.673079 3.34128,-5.426346 4.38402,-1.968336 8.32962,-2.078126 13.0625,-1.375 3.10875,1.329648 5.45009,2.900194 7,6 0.53384,6.326189 -0.39122,12.377621 -1.60938,18.566404 l -0.50934,2.66161 c -0.35558,1.84368 -0.71548,3.68654 -1.07953,5.52858 -0.55043,2.79918 -1.07915,5.60189 -1.60644,8.40552 -0.35025,1.80168 -0.70178,3.60312 -1.05469,5.40429 l -0.46771,2.50698 c -1.79222,8.87005 -5.43446,17.08508 -12.89948,22.55943 -8.92733,5.72123 -17.26211,6.67108 -27.70922,6.59424 l -3.19606,8.8e-4 c -3.45744,-0.001 -6.91466,-0.0169 -10.37206,-0.0326 -2.40852,-0.004 -4.81705,-0.007 -7.22557,-0.009 -6.31778,-0.008 -12.63546,-0.0272 -18.9532,-0.0494 -6.45537,-0.0205 -12.91076,-0.0296 -19.36615,-0.0397 -12.650431,-0.0214 -25.300797,-0.0551 -37.951173,-0.0976 1.056271,3.18849 2.232827,6.13533 4,9 5.25011,2.58498 10.95555,2.27661 16.711426,2.2395 l 2.875274,0.006 c 2.049925,0.004 4.099861,0.003 6.149784,-0.002 3.244938,-0.006 6.489519,0.004 9.734429,0.0172 9.22212,0.0371 18.44411,0.0556 27.66629,0.0444 5.64925,-0.006 11.298,0.0124 16.94714,0.0459 2.15058,0.008 4.3012,0.007 6.45176,-0.004 3.00431,-0.0143 6.00704,0.002 9.01126,0.025 l 2.68909,-0.0357 c 4.44843,0.0671 6.20572,0.22066 9.80356,3.07587 2.70118,3.56596 3.25413,6.1753 2.95999,10.58748 -1.16871,3.44118 -2.19538,5.33966 -5.00168,7.64271 -4.2973,1.94531 -8.17994,1.78398 -12.84647,1.76134 l -2.99296,0.0208 c -3.26405,0.0183 -6.52762,0.0144 -9.79171,0.009 -2.27578,0.005 -4.55157,0.01 -6.82736,0.0159 -4.7731,0.009 -9.54603,0.007 -14.31912,-0.003 -6.09613,-0.0115 -12.19167,0.009 -18.28772,0.0379 -4.70313,0.0184 -9.40612,0.0181 -14.109279,0.0124 -2.246115,-1.5e-4 -4.492239,0.006 -6.73832,0.0183 -3.153986,0.015 -6.306918,0.004 -9.460872,-0.0129 l -2.774918,0.0293 c -9.218985,-0.10366 -19.144502,-2.87595 -25.849594,-9.531 l -8,-13 c -0.703947,-2.58638 -1.287522,-5.12266 -1.816406,-7.7461 -0.351771,-1.66156 -0.704849,-3.32285 -1.059082,-4.98388 l -0.556946,-2.63593 c -0.912814,-4.2364 -1.909363,-8.45226 -2.90741,-12.66925 -0.421124,-1.78856 -0.842183,-3.57713 -1.263183,-5.36572 L 36.30011,131.1059 C 31.115267,109.10315 26.065122,87.070719 21.064697,65.025391 18.653594,54.402564 16.231625,43.782305 13.740234,33.177979 l -0.625946,-2.697052 c -0.632331,-3.90937 -0.632331,-3.90937 -2.553741,-7.185761 -5.9741291,-0.720096 -11.9843282,-1.079763 -18.0000001,-0.9375 -4.8637089,0.03557 -7.6702589,-0.840576 -11.3124999,-4.1875 -2.1544,-3.670459 -2.633361,-6.770925 -1.6875,-10.875 C -15.72539,-1.0534038 -8.5636037,0.05000198 0,0 Z"
     fill="#F8F9F8"
     transform="translate(27.439453,5.704834)"
     id="path2"
     style="fill:#ffffff;fill-opacity:1"
     sodipodi:nodetypes="ccccccccccccccccccccccccccccccccccccccccccccccccccccccccccccccccccccccccccccccccccccccccc" />
  <path
     d="M 3,2 C 3.3181002,5.7851532 3.3471706,8.2521977 3.125,22.125 3.0640523,26.714545 3.0386733,31.304475 2.9636536,35.893829 2.9020135,41.034123 3.2500171,45.912555 4,51 13.58789,38.72032 13.58789,38.72032 23.072754,26.361084 c 1.078649,-1.410202 2.166953,-2.813069 3.264648,-4.208496 2.606887,-3.330935 4.987605,-6.61158 7.07666,-10.293213 C 36.39001,6.9039534 38.873246,2.8021748 44.73877,1.2973633 53.439602,0.1262288 62.408236,0.10826206 71,2 69.359426,5.7588965 66.928638,8.7707126 64.375,11.9375 53.19376,25.996307 42.29378,40.276926 32,55 c 3.54569,5.706673 7.135522,11.286609 11.230469,16.613281 2.367632,3.193429 4.593807,6.476801 6.832031,9.761719 4.139687,6.066708 8.375824,12.05434 12.6875,18 l 1.665039,2.30054 c 2.913337,4.02451 2.913337,4.02451 5.839356,8.03979 1.025415,1.40299 2.042229,2.81226 3.058105,4.22217 l 1.613281,2.21484 C 76,118 76,118 76,121 c -4.162336,0.19875 -8.322118,0.34336 -12.487793,0.43945 -1.414552,0.0401 -2.828776,0.0946 -4.242187,0.16407 -11.732023,0.56221 -11.732023,0.56221 -15.457764,-2.26172 C 42.273009,117.29615 41.117439,115.29867 40,113 l -1.730469,-2.40625 C 33.75404,104.105 29.275397,97.59119 24.800781,91.074219 20.88349,85.371524 16.94264,79.68519 13,74 4.3891484,71.421458 3.0774264,80.339334 3,84 1.8794881,91.817399 2.5908014,99.729403 2.707031,107.59375 2.772766,111.73045 2.8760921,115.86465 3,120 c -4.1186229,2.05931 -9.4735905,1.18489 -14,1.1875 -4.335899,0.055 -8.672389,0.0471 -13.008579,0.0556 L -24,115 c 0.104438,-2.2525 0.167193,-3.70501 0.130495,-25.771729 -0.0057,-3.573372 -0.0024,-7.14667 0.0036,-10.72004 C -24.082475,54.31614 -24.594644,30.12793 -25.328125,5.9375 -24.88978,3.349177 -24.054364,2.6075917 -22,1 -11.280727,-0.04443999 0.04249676,1.5390873 3,2 Z"
     fill="#F6F7F6"
     transform="translate(297,52)"
     id="path3"
     style="fill:#ffffff;fill-opacity:1"
     sodipodi:nodetypes="ccccccccccccccccccccccccccccccccccccc" />
  <path
     d="M 0,0 2.4140625,1.2851562 C 11.502152,6.7410497 17.064138,14.908895 20,25 c 1.612738,7.040752 2.240299,13.79102 2,21 -5.518231,2.006629 -10.27862,2.118291 -16.1328125,1.875 L -2,48 h -20 -5 l -13,-1 1.375,4.875 0.773438,2.742187 C -37.139568,57.145697 -37.139568,57.145697 -35,59 l 2.4375,2.5625 c 4.70477,4.475269 9.900435,3.769934 16.09375,3.71875 C -11.754242,64.898993 -9.6054453,64.031852 -6,61 l 2,-5 H 21 C 18.582264,66.879812 15.422202,72.946647 6.4414062,79.496094 -5.3845572,86.780887 -18.89309,87.483905 -32.378906,85.503906 -42.906077,82.853395 -52.733434,77.126256 -58.839844,67.996094 -66.130716,55.451865 -67.496723,40.882455 -64.28125,26.867187 -61.339531,16.951567 -55.815774,7.7294006 -47,2 -33.176423,-5.4263888 -14.281534,-7.6152363 0,0 Z m -34,18 -2,2 -4,10 c 4.414996,0.882999 8.019945,1.115458 12.488281,1.097656 l 2.130905,-0.0043 c 2.231149,-0.0056 4.462196,-0.01811 6.693314,-0.03087 1.518879,-0.005 3.037759,-0.0096 4.556641,-0.01367 C -10.42054,31.037842 -6.71028,31.0206 -3,31 -3.4302559,29.392807 -3.8743528,27.789315 -4.3242187,26.1875 L -5.0690918,23.480469 C -6.8830541,18.647042 -10.253246,16.797431 -14.875,14.6875 -22.637286,12.979797 -27.300745,14.008954 -34,18 Z"
     fill="#F4F4F4"
     transform="translate(667,88)"
     id="path4"
     style="fill:#ffffff;fill-opacity:1"
     sodipodi:nodetypes="ccccccccccccccccccccccccccccccccccc" />
  <path
     d="m 0,0 c 6.7299822,6.2260463 10.200775,13.925652 11,23 0.13431,4.457448 0.116329,8.911979 0.09766,13.371094 l -0.0043,3.871109 c -0.0046,3.375044 -0.0136,6.75002 -0.0247,10.125046 -0.01028,3.452447 -0.01481,6.904902 -0.01984,10.35736 C 11.037825,67.483092 11.021106,74.241542 11,81 7.3758407,81.22523 3.7507578,81.427313 0.125,81.625 l -3.1289063,0.195312 -2.9882812,0.15625 -2.7612305,0.158692 C -11,82 -11,82 -13,80 c 0.375,-3.625 0.375,-3.625 1,-7 l -1.617188,1.171875 C -24.565874,82.108742 -38.009159,82.545072 -51,81 l -2.125,-0.25 C -59.430845,79.104997 -63.273392,75.072327 -67,70 -70.162723,63.232454 -71.051096,55.303106 -68.8125,48.125 -65.654663,40.335669 -61.389577,35.90262 -54,32 c 9.476486,-3.727033 18.867737,-4.143758 28.9375,-4.0625 l 3.228516,0.01367 C -19.222597,27.96288 -16.611329,27.97928 -14,28 c -0.424665,-1.773955 -0.865241,-3.544106 -1.3125,-5.3125 l -0.738281,-2.988281 C -17.013238,16.962355 -17.729707,15.749652 -20,14 -27.26481,8.1003983 -39.899712,8.6991365 -44,21 l -23,-1 0.25,-2.9375 C -65.946714,10.649382 -62.421997,5.3015421 -57.800781,0.91015625 -42.641991,-10.635911 -15.637046,-11.037915 0,0 Z m -43,48 c -2.49159,3.737386 -2.457933,5.573316 -2,10 2.215087,3.671478 2.215087,3.671478 5.878906,5.617187 C -32.109137,64.882697 -25.414855,64.181665 -19,61 c 4.236344,-3.693223 5.477714,-8.531355 6,-14 l -1,-3 c -11.096039,-4.956799 -21.779896,-2.133545 -29,4 z"
     fill="#F5F6F5"
     transform="translate(445,91)"
     id="path5"
     style="fill:#ffffff;fill-opacity:1"
     sodipodi:nodetypes="ccccccccccccccccccccccccccccccccccccc" />
  <path
     d="M 0,0 2.1738281,0.00585938 C 6.9743092,0.04510036 11.58206,0.33659332 16.3125,1.125 c 0.505599,1.4355403 1.004275,2.8735202 1.5,4.3125 L 18.65625,7.8632812 21.3125,14.125 c 0.541351,1.766342 0.541351,1.766342 0.962402,4.029053 0.935858,4.612846 2.204732,9.026767 3.63916,13.506103 l 0.731293,2.315537 c 0.760468,2.405087 1.526203,4.808458 2.292145,7.211807 0.521185,1.645071 1.042021,3.290252 1.5625,4.935547 1.266815,4.001937 2.538351,8.002345 3.8125,12.001953 2.416439,-4.508079 4.080349,-9.045502 5.523437,-13.933594 l 0.691071,-2.287857 c 0.725287,-2.403844 1.443327,-4.80977 2.160492,-7.216049 0.942309,-3.14544 1.887918,-6.289871 2.835937,-9.433594 l 0.697938,-2.317474 C 48.440233,15.6149 50.857143,8.370536 53.3125,1.125 l 26,-1 c -0.644605,3.8676287 -1.139263,6.7902455 -2.404297,10.341553 l -0.86676,2.456176 -0.947693,2.635865 -0.999939,2.818725 c -1.088521,3.063625 -2.184546,6.124499 -3.281311,9.185181 -0.761615,2.134117 -1.523005,4.268314 -2.28418,6.402588 -1.589999,4.454277 -3.183889,8.907138 -4.780273,13.359131 -2.010167,5.60771 -4.008374,11.219592 -6.00293,16.83287 -1.52208,4.278563 -3.051401,8.55451 -4.582763,12.829758 -0.727939,2.035622 -1.4534,4.072131 -2.17627,6.109558 -1.013854,2.854748 -2.037781,5.705692 -3.064209,8.555939 l -0.885193,2.513061 C 42.511748,106.63106 36.528226,116.18364 24.3125,122.125 c -8.567731,3.48186 -16.907692,3.3313 -26,3 -0.9023875,-2.70716 -1.118513,-4.23777 -1.0976563,-7.01172 l 0.00977,-2.29492 0.025391,-2.38086 0.013672,-2.41602 c 0.01177,-1.96552 0.029705,-3.93101 0.048828,-5.89648 2.6471703,-0.74398 4.5014714,-0.99054 7.3125,-0.9375 5.2325923,-0.0887 9.161281,-0.57753 13,-4.3125 3.549736,-5.784754 3.995654,-10.159896 2.6875,-16.75 -0.821529,-2.6974 -1.860743,-5.275382 -2.949219,-7.875 L 16.46904,73.045166 C 15.530015,70.734652 14.57815,68.429718 13.625,66.125 12.388333,63.105629 11.156738,60.084203 9.9257813,57.0625 L 8.9988403,54.793365 C 6.2089608,47.936295 3.6114342,41.014577 1.0392761,34.073608 -0.1800741,30.804326 -1.4304029,27.546996 -2.6796875,24.289062 -3.1615582,23.028684 -3.64333,21.768268 -4.125,20.507812 -4.8541489,18.600271 -5.5843576,16.693165 -6.3173828,14.787109 -7.0453443,12.893088 -7.7688459,10.997353 -8.4921875,9.1015625 L -9.7729492,5.7602539 C -10.6875,3.125 -10.6875,3.125 -10.6875,1.125 -7.0731103,-0.07979658 -3.7610891,-0.02404349 0,0 Z"
     fill="#F6F7F6"
     transform="translate(902.6875,84.875)"
     id="path6"
     style="fill:#ffffff;fill-opacity:1"
     sodipodi:nodetypes="cccccccccccccccccccccccccccccccccccccccccccccccccccccc" />
  <path
     d="M 6,2 7,10 8.3984375,8.5742188 C 15.633369,1.6681479 22.157726,-0.10845603 32.0625,-0.375 41.511509,-0.12930528 49.21851,2.1446376 56,9 c 4.514304,6.452207 6.128257,11.767224 6.113525,19.604492 l 4.43e-4,1.982041 c -6.95e-4,2.153481 -0.0085,4.306876 -0.01631,6.460342 -0.0019,1.496439 -0.0033,2.992879 -0.0043,4.489319 -0.0038,3.93239 -0.01363,7.864743 -0.0247,11.797119 -0.01024,4.015193 -0.0148,8.030391 -0.01984,12.045593 C 62.038114,73.252623 62.020527,81.126303 62,89 H 38 c -0.994796,-2.984388 -1.105291,-4.861794 -1.065918,-7.971191 l 0.02957,-3.066071 0.04416,-3.314301 c 0.01753,-2.319005 0.03444,-4.638016 0.05078,-6.957031 0.03088,-3.653617 0.06629,-7.306996 0.112793,-10.960449 0.04256,-3.527536 0.06585,-7.054796 0.08642,-10.58252 l 0.05643,-3.277496 C 37.335626,36.489362 36.828349,30.809574 34,25 30.972391,21.972391 28.185271,21.792139 24.0625,21.625 18.871047,21.787233 15.351228,23.152606 11.25,26.375 5.945963,33.270248 6.8605141,42.96714 6.9023437,51.183594 l 0.00429,3.198501 c 0.00557,3.351831 0.018119,6.703594 0.030869,10.055405 0.00502,2.280598 0.00958,4.561197 0.013672,6.841797 C 6.9621628,76.852888 6.9788722,82.426439 7,88 3.9717159,89.009428 1.9127154,89.128993 -1.2539062,89.132812 l -3.0878907,0.0039 L -7.5625,89.125 l -3.232422,0.01172 -3.083984,-0.0039 -2.830323,-0.0034 C -19,89 -19,89 -21,88 l 1,-2 c 0.12243,-2.653749 0.185688,-5.282984 0.205322,-7.937988 l 0.03,-2.483612 c 0.03165,-2.716208 0.05639,-5.432433 0.08109,-8.148713 0.02057,-1.880447 0.04156,-3.760889 0.06297,-5.641326 0.05526,-4.954928 0.10465,-9.909898 0.152848,-14.864899 0.05019,-5.053953 0.105888,-10.107844 0.161132,-15.161743 C -19.199016,21.841198 -19.097581,11.920624 -19,2 c 3.607421,-1.20247354 6.877019,-1.07045077 10.625,-1 2.4650513,0.045819 4.9084595,0.047094 7.375,0 z"
     fill="#FBFBFB"
     transform="translate(718,84)"
     id="path7"
     style="fill:#ffffff;fill-opacity:1"
     sodipodi:nodetypes="cccccccccccccccccccccccccccccccccccccccccccccc" />
  <path
     d="m 0,0 h 25 v 22 c 6.537318,-0.36843 6.537318,-0.36843 13.073975,-0.748291 l 2.453369,-0.130615 2.523193,-0.142823 C 45,21 45,21 46,22 c 0.08652,1.415701 0.107049,2.835595 0.09766,4.253906 l -0.0076,2.330323 L 46.0625,31.5625 46,41 H 25 c 0.119911,5.765931 0.242569,11.531665 0.372314,17.297363 0.0433,1.961228 0.08498,3.922492 0.125,5.883789 0.05783,2.819936 0.121486,5.63969 0.18628,8.459473 l 0.05064,2.65509 0.06044,2.486512 0.0471,2.180236 C 26.009965,82.128327 26.235256,83.960937 27,86 c 3.222824,1.074275 5.615112,1.133296 9,1.125 l 3.1875,0.0078 C 42.081269,87.123536 42.081269,87.123536 45,86 c 0.786884,2.777239 1.119499,5.226101 1.097656,8.109375 l -0.0098,2.285156 -0.02539,2.355469 -0.01367,2.40234 C 46.037086,103.1016 46.019151,105.05081 46,107 36.294222,111.28196 24.010067,111.66624 13.9375,108.4375 7.4460757,105.68853 4.3296749,101.90482 1.4421387,95.59668 -0.54097613,90.204666 -0.37658271,84.96428 -0.29296875,79.28125 l 0.0128632,-3.328735 C -0.26340661,72.468086 -0.22576996,68.984251 -0.1875,65.5 c 0.0150581,-2.372387 0.0287446,-4.744784 0.0410156,-7.117188 C -0.11353173,52.588316 -0.06180965,46.794258 0,41 h -15 c -1.14902,-6.894122 -1.38134,-12.093298 0,-19 H 0 Z"
     fill="#F6F6F6"
     transform="translate(551,64)"
     id="path8"
     style="fill:#ffffff;fill-opacity:1"
     sodipodi:nodetypes="cccccccccccccccccccccccccccccccccccccc" />
  <path
     d="m 0,0 3.3984375,0.00976562 3.5625,0.02539063 3.5859375,0.01367187 c 2.929738,0.01181346 5.859375,0.02828555 8.789062,0.04882813 1.226251,2.45250095 1.034254,3.84310435 0.878907,6.57031245 l -0.130615,2.4458008 -0.185792,3.1088865 -0.5625,9.875 h 21 v 19 h -21 c 0.09751,4.677762 0.200584,9.354753 0.317383,14.031983 0.03802,1.587492 0.07292,3.175062 0.104492,4.762695 -0.569873,13.717807 -0.569873,13.717807 3.989991,25.90918 2.316088,1.890256 4.083558,1.625982 7.025634,1.546142 l 2.871094,-0.04687 c 2.94023,-0.145738 2.94023,-0.145738 6.691406,-1.203125 v 21.000009 c -10.493814,3.35801 -22.411008,5.22358 -32.9999995,1 C 1.6144662,104.76935 -2.5332384,101.0928 -4.3901367,94.532471 -6.0777094,83.803033 -5.8861612,73.118986 -5.7890625,62.285156 c 0.010054,-1.964188 0.019175,-3.928381 0.027344,-5.892578 0.021816,-4.7651 0.056213,-9.529954 0.097656,-14.294922 l -3.0273438,-0.148437 -3.9101567,-0.226563 -3.902343,-0.210937 -3.160156,-0.414063 c -1.202176,-2.40435 -1.038972,-3.683813 -0.878907,-6.351562 l 0.146485,-2.578125 0.169922,-2.695313 0.158203,-2.71875 c 0.12984,-2.21909 -0.29311,-3.569872 0.342306,-5.54041 l 2.061991,-0.11584 c 2.204364,0.229503 4.413921,0.41076 6.624999,0.5625 l 3.601563,0.253906 2.7734375,0.183594 -0.5039062,-1.523437 c -0.8048805,-4.018065 -0.496582,-8.08594 -0.3691407,-12.1640627 0.029752,-1.7710891 -0.04201,-6.7818142 -0.1269531,-8.55111521 z"
     fill="#F9FAF9"
     transform="translate(847.66406,63.902344)"
     id="path9"
     style="fill:#ffffff;fill-opacity:1"
     sodipodi:nodetypes="ccccccccccccccccccccccccccccccccccccccccc" />
  <path
     d="m 0,0 -1,22 -8,-0.1875 c -8.006026,-0.05221 -13.767577,0.09562 -19.875,5.9375 -4.459387,6.820238 -4.448753,13.507453 -4.539062,21.433594 l -0.05869,3.198501 c -0.0595,3.351721 -0.106062,6.703477 -0.152252,10.055405 -0.03821,2.280613 -0.07726,4.561213 -0.117187,6.841797 C -33.837922,74.85274 -33.923056,80.426268 -34,86 c -4.002999,2.001499 -9.099167,1.184852 -13.5,1.1875 l -3.246094,0.03711 -3.097656,0.0059 -2.849609,0.01245 L -59,85 V 0 c 2.489957,-1.2449783 4.189949,-1.1293437 6.972656,-1.1328125 l 2.97461,-0.00391 3.115234,0.011719 3.126953,-0.011719 2.970703,0.00391 2.738526,0.00342 C -35,-1 -35,-1 -34,0 c 0.454599,2.6546312 0.702432,5.3218914 1,8 l 1.214844,-1.4257813 C -23.770641,-2.2035837 -11.011966,-5.5059829 0,0 Z"
     fill="#FAFAFA"
     transform="translate(529,86)"
     id="path10"
     style="fill:#ffffff;fill-opacity:1"
     sodipodi:nodetypes="ccccccccccccccccccccccccc" />
  <path
     d="m 4,2 v 86 c -2.2723914,1.136196 -3.50782138,1.115867 -6.0273438,1.097656 L -4.4277344,89.087891 -6.9375,89.0625 -9.4355469,89.048828 c -1.5344381,-0.0087 -3.0688671,-0.0195 -4.6032711,-0.03296 C -15.6925,89.002488 -17.346264,89 -19,89 c -1.671,-0.310884 -1.32854,-0.752479 -2.989825,-1.111676 L -22,86 c 0.217303,-2.557653 0.311382,-5.010374 0.318848,-7.570801 l 0.03044,-2.365387 c 0.03095,-2.586367 0.0479,-5.17263 0.06477,-7.759125 0.0187,-1.79077 0.03827,-3.581532 0.05869,-5.372283 0.05143,-4.718178 0.091,-9.436385 0.128143,-14.154694 0.03997,-4.812695 0.0911,-9.625269 0.141297,-14.437866 C -21.160926,24.893313 -21.076562,15.446715 -21,6 V 2 c 2.78522,-0.9733335 5.186563,-1.0781889 8.109375,-0.8789063 L -10.605469,1.2675781 -8.25,1.4375 -5.8476562,1.5957031 C -3.89806,1.7248932 -1.9489711,1.8616997 0,2 Z"
     fill="#F2F2F2"
     transform="translate(816,84)"
     id="path11"
     style="fill:#ffffff;fill-opacity:1"
     sodipodi:nodetypes="cccccccccccccccccccccccc" />
  <path
     d="M 0,0 C 4.1998056,4.3119363 5.3744574,8.4757771 5.6875,14.4375 5.3911312,20.995609 3.7746901,25.434143 -1,30 -6.2302897,33.761207 -11.426233,35.770557 -17.902344,35.359375 -23.48473,34.402989 -27.909807,31.842303 -32,28 -38.485667,21.514333 -36.249815,10.007642 -35.417969,6.6523437 -32.971785,0.85522329 -28.498959,-2.2215785 -23,-5 -14.764422,-7.5736183 -6.444728,-5.5901011 0,0 Z"
     fill="#F6F6F6"
     transform="translate(200,208)"
     id="path12"
     style="fill:#ffffff;fill-opacity:1"
     sodipodi:nodetypes="cccccccc" />
  <path
     d="M 0,0 C 4.7720607,4.0650888 6.5420385,8.8244561 7.5664062,14.84375 7.8203606,20.283289 5.7591805,24.551342 3.125,29.1875 -1.3645364,33.331687 -7.0941145,36.646108 -13.3125,37 -19.759996,36.516111 -25.510032,34.086566 -30.25,29.75 -33.792551,24.060448 -35.886602,19.164733 -34.9375,12.375 -33.279178,5.7623113 -29.057385,1.4634862 -23.6875,-2.5 -15.737429,-6.0566106 -7.0688121,-5.0165764 0,0 Z"
     fill="#F5F5F5"
     transform="translate(113.3125,206.5625)"
     id="path13"
     style="fill:#ffffff;fill-opacity:1"
     sodipodi:nodetypes="cccccccc" />
  <path
     d="m 0,0 c 3.045283,3.4931188 3.9461122,6.8330835 4.125,11.4375 -1.4411269,5.171103 -3.2932549,8.339666 -8,11 -4.6652731,1.27155 -8.161163,1.247526 -12.8125,-0.125 -3.933647,-2.31391 -6.409764,-4.27897 -7.753906,-8.765625 C -25.480415,7.8159227 -23.932246,4.4692302 -20.6875,-0.3125 -13.811779,-5.0543764 -6.8585996,-3.7274998 0,0 Z"
     fill="#EFF0EF"
     transform="translate(817.875,54.5625)"
     id="path14"
     style="fill:#ffffff;fill-opacity:1"
     sodipodi:nodetypes="ccccccc" />
  <path
     d="M 0,0 C -682,-136 -682,-136 0,0 Z"
     fill="#121212"
     transform="translate(682,136)"
     id="path15"
     style="fill:#ffffff;fill-opacity:1"
     sodipodi:nodetypes="cc" />
  <path
     d="M 0,0 4,1 Z"
     fill="#000000"
     transform="translate(169,136)"
     id="path16"
     style="fill:#ffffff;fill-opacity:1"
     sodipodi:nodetypes="ccc" />
  <path
     d="M 0,0 4,1 Z"
     fill="#000000"
     transform="translate(380,113)"
     id="path17"
     style="fill:#ffffff;fill-opacity:1"
     sodipodi:nodetypes="ccc" />
  <path
     d="M 0,0 4,1 Z"
     fill="#000000"
     transform="translate(646,82)"
     id="path18"
     style="fill:#ffffff;fill-opacity:1"
     sodipodi:nodetypes="ccc" />
  <path
     d="M 0,0 3,1 Z"
     fill="#000000"
     transform="translate(186,136)"
     id="path20"
     style="fill:#ffffff;fill-opacity:1"
     sodipodi:nodetypes="ccc" />
  <path
     d="M 0,0 3,1 Z"
     fill="#000000"
     transform="translate(138,136)"
     id="path21"
     style="fill:#ffffff;fill-opacity:1"
     sodipodi:nodetypes="ccc" />
  <path
     d="M 0,0 3,1 Z"
     fill="#000000"
     transform="translate(125,21)"
     id="path22"
     style="fill:#ffffff;fill-opacity:1"
     sodipodi:nodetypes="ccc" />
  <path
     d=""
     fill="#000000"
     transform="translate(0,0)"
     id="path23" />
  <path
     d="M 0,0 2,1 Z"
     fill="#FFFFFF"
     transform="translate(161,210)"
     id="path24"
     style="fill:#ffffff;fill-opacity:1"
     sodipodi:nodetypes="ccc" />
  <path
     d="M 0,0 2,1 Z"
     fill="#000000"
     transform="translate(577,175)"
     id="path25"
     style="fill:#ffffff;fill-opacity:1"
     sodipodi:nodetypes="ccc" />
  <path
     d=""
     fill="#000000"
     transform="translate(0,0)"
     id="path26" />
  <path
     d="M 0,0 2,1 Z"
     fill="#FFFFFF"
     transform="translate(424,138)"
     id="path27"
     style="fill:#ffffff;fill-opacity:1"
     sodipodi:nodetypes="ccc" />
  <path
     d="M 0,0 C -675,-136 -675,-136 0,0 Z"
     fill="#000000"
     transform="translate(675,136)"
     id="path28"
     style="fill:#ffffff;fill-opacity:1"
     sodipodi:nodetypes="cc" />
  <path
     d="M 0,0 2,1 Z"
     fill="#000000"
     transform="translate(634,136)"
     id="path29"
     style="fill:#ffffff;fill-opacity:1"
     sodipodi:nodetypes="ccc" />
  <path
     d="M 0,0 2,1 Z"
     fill="#000000"
     transform="translate(416,136)"
     id="path30"
     style="fill:#ffffff;fill-opacity:1"
     sodipodi:nodetypes="ccc" />
  <path
     d=""
     fill="#000000"
     transform="translate(0,0)"
     id="path31" />
  <path
     d="M 0,0 2,1 Z"
     fill="#000000"
     transform="translate(123,136)"
     id="path32"
     style="fill:#ffffff;fill-opacity:1"
     sodipodi:nodetypes="ccc" />
  <path
     d="M 0,0 2,1 Z"
     fill="#000000"
     transform="translate(142,124)"
     id="path33"
     style="fill:#ffffff;fill-opacity:1"
     sodipodi:nodetypes="ccc" />
  <path
     d=""
     fill="#000000"
     transform="translate(0,0)"
     id="path34" />
  <path
     d=""
     fill="#000000"
     transform="translate(0,0)"
     id="path35" />
  <path
     d="M 0,0 2,1 Z"
     fill="#000000"
     transform="translate(396,113)"
     id="path36"
     style="fill:#ffffff;fill-opacity:1"
     sodipodi:nodetypes="ccc" />
  <path
     d="M 0,0 2,1 Z"
     fill="#000000"
     transform="translate(392,113)"
     id="path37"
     style="fill:#ffffff;fill-opacity:1"
     sodipodi:nodetypes="ccc" />
  <path
     d=""
     fill="#000000"
     transform="translate(0,0)"
     id="path38" />
  <path
     d=""
     fill="#000000"
     transform="translate(0,0)"
     id="path39" />
  <path
     d=""
     fill="#000000"
     transform="translate(0,0)"
     id="path40" />
  <path
     d=""
     fill="#000000"
     transform="translate(0,0)"
     id="path41" />
  <path
     d=""
     fill="#000000"
     transform="translate(0,0)"
     id="path42" />
  <path
     d=""
     fill="#000000"
     transform="translate(0,0)"
     id="path43" />
  <path
     d="M 0,0 2,1 Z"
     fill="#000000"
     transform="translate(764,85)"
     id="path44"
     style="fill:#ffffff;fill-opacity:1"
     sodipodi:nodetypes="ccc" />
  <path
     d=""
     fill="#000000"
     transform="translate(0,0)"
     id="path45" />
  <path
     d="M 0,0 2,1 Z"
     fill="#000000"
     transform="translate(403,83)"
     id="path46"
     style="fill:#ffffff;fill-opacity:1"
     sodipodi:nodetypes="ccc" />
  <path
     d="M 0,0 2,1 Z"
     fill="#000000"
     transform="translate(643,82)"
     id="path47"
     style="fill:#ffffff;fill-opacity:1"
     sodipodi:nodetypes="ccc" />
  <path
     d="M 0,0 2,1 Z"
     fill="#000000"
     transform="translate(423,82)"
     id="path48"
     style="fill:#ffffff;fill-opacity:1"
     sodipodi:nodetypes="ccc" />
  <path
     d="M 0,0 2,1 Z"
     fill="#000000"
     transform="translate(413,82)"
     id="path49"
     style="fill:#ffffff;fill-opacity:1"
     sodipodi:nodetypes="ccc" />
  <path
     d="M 0,0 2,1 Z"
     fill="#000000"
     transform="translate(77,82)"
     id="path50"
     style="fill:#ffffff;fill-opacity:1"
     sodipodi:nodetypes="ccc" />
  <path
     d="M 0,0 2,1 Z"
     fill="#000000"
     transform="translate(846,62)"
     id="path51"
     style="fill:#ffffff;fill-opacity:1"
     sodipodi:nodetypes="ccc" />
  <path
     d="M 0,0 2,1 Z"
     fill="#000000"
     transform="translate(148,53)"
     id="path52"
     style="fill:#ffffff;fill-opacity:1"
     sodipodi:nodetypes="ccc" />
  <path
     d=""
     fill="#000000"
     transform="translate(0,0)"
     id="path53" />
  <path
     d=""
     fill="#000000"
     transform="translate(0,0)"
     id="path54" />
  <path
     d=""
     fill="#000000"
     transform="translate(0,0)"
     id="path55" />
  <path
     d=""
     fill="#000000"
     transform="translate(0,0)"
     id="path56" />
  <path
     d=""
     fill="#FFFFFF"
     transform="translate(0,0)"
     id="path57" />
  <path
     d=""
     fill="#FFFFFF"
     transform="translate(0,0)"
     id="path58" />
  <path
     d=""
     fill="#000000"
     transform="translate(0,0)"
     id="path59" />
  <path
     d=""
     fill="#FFFFFF"
     transform="translate(0,0)"
     id="path60" />
  <path
     d=""
     fill="#000000"
     transform="translate(0,0)"
     id="path61" />
  <path
     d=""
     fill="#FFFFFF"
     transform="translate(0,0)"
     id="path62" />
  <path
     d=""
     fill="#000000"
     transform="translate(0,0)"
     id="path63" />
  <path
     d=""
     fill="#000000"
     transform="translate(0,0)"
     id="path64" />
  <path
     d=""
     fill="#FFFFFF"
     transform="translate(0,0)"
     id="path65" />
  <path
     d=""
     fill="#FFFFFF"
     transform="translate(0,0)"
     id="path66" />
  <path
     d=""
     fill="#FFFFFF"
     transform="translate(0,0)"
     id="path67" />
  <path
     d=""
     fill="#000000"
     transform="translate(0,0)"
     id="path68" />
  <path
     d=""
     fill="#FFFFFF"
     transform="translate(0,0)"
     id="path69" />
  <path
     d=""
     fill="#000000"
     transform="translate(0,0)"
     id="path70" />
  <path
     d=""
     fill="#FFFFFF"
     transform="translate(0,0)"
     id="path71" />
  <path
     d=""
     fill="#000000"
     transform="translate(0,0)"
     id="path72" />
  <path
     d=""
     fill="#FFFFFF"
     transform="translate(0,0)"
     id="path73" />
  <path
     d=""
     fill="#FFFFFF"
     transform="translate(0,0)"
     id="path74" />
  <path
     d=""
     fill="#000000"
     transform="translate(0,0)"
     id="path75" />
  <path
     d=""
     fill="#FFFFFF"
     transform="translate(0,0)"
     id="path76" />
  <path
     d=""
     fill="#FFFFFF"
     transform="translate(0,0)"
     id="path77" />
  <path
     d=""
     fill="#000000"
     transform="translate(0,0)"
     id="path78" />
  <path
     d=""
     fill="#FFFFFF"
     transform="translate(0,0)"
     id="path79" />
  <path
     d=""
     fill="#000000"
     transform="translate(0,0)"
     id="path80" />
  <path
     d=""
     fill="#000000"
     transform="translate(0,0)"
     id="path81" />
  <path
     d=""
     fill="#FFFFFF"
     transform="translate(0,0)"
     id="path82" />
  <path
     d=""
     fill="#FFFFFF"
     transform="translate(0,0)"
     id="path83" />
  <path
     d=""
     fill="#000000"
     transform="translate(0,0)"
     id="path84" />
  <path
     d=""
     fill="#FFFFFF"
     transform="translate(0,0)"
     id="path85" />
  <path
     d=""
     fill="#000000"
     transform="translate(0,0)"
     id="path86" />
  <path
     d=""
     fill="#FFFFFF"
     transform="translate(0,0)"
     id="path87" />
  <path
     d=""
     fill="#FFFFFF"
     transform="translate(0,0)"
     id="path88" />
  <path
     d=""
     fill="#FFFFFF"
     transform="translate(0,0)"
     id="path89" />
  <path
     d=""
     fill="#FFFFFF"
     transform="translate(0,0)"
     id="path90" />
  <path
     d=""
     fill="#FFFFFF"
     transform="translate(0,0)"
     id="path91" />
  <path
     d=""
     fill="#000000"
     transform="translate(0,0)"
     id="path92" />
  <path
     d=""
     fill="#000000"
     transform="translate(0,0)"
     id="path93" />
  <path
     d=""
     fill="#000000"
     transform="translate(0,0)"
     id="path94" />
  <path
     d=""
     fill="#000000"
     transform="translate(0,0)"
     id="path95" />
  <path
     d=""
     fill="#000000"
     transform="translate(0,0)"
     id="path96" />
  <path
     d=""
     fill="#000000"
     transform="translate(0,0)"
     id="path97" />
  <path
     d=""
     fill="#000000"
     transform="translate(0,0)"
     id="path98" />
  <path
     d=""
     fill="#000000"
     transform="translate(0,0)"
     id="path99" />
  <path
     d=""
     fill="#000000"
     transform="translate(0,0)"
     id="path100" />
  <path
     d=""
     fill="#000000"
     transform="translate(0,0)"
     id="path101" />
  <path
     d=""
     fill="#000000"
     transform="translate(0,0)"
     id="path102" />
  <path
     d=""
     fill="#000000"
     transform="translate(0,0)"
     id="path103" />
  <path
     d=""
     fill="#000000"
     transform="translate(0,0)"
     id="path104" />
  <path
     d=""
     fill="#000000"
     transform="translate(0,0)"
     id="path105" />
  <path
     d=""
     fill="#000000"
     transform="translate(0,0)"
     id="path106" />
  <path
     d=""
     fill="#000000"
     transform="translate(0,0)"
     id="path107" />
  <path
     d=""
     fill="#FFFFFF"
     transform="translate(0,0)"
     id="path108" />
  <path
     d=""
     fill="#000000"
     transform="translate(0,0)"
     id="path109" />
  <path
     d=""
     fill="#000000"
     transform="translate(0,0)"
     id="path110" />
  <path
     d=""
     fill="#000000"
     transform="translate(0,0)"
     id="path111" />
  <path
     d=""
     fill="#000000"
     transform="translate(0,0)"
     id="path112" />
  <path
     d=""
     fill="#000000"
     transform="translate(0,0)"
     id="path113" />
  <path
     d=""
     fill="#000000"
     transform="translate(0,0)"
     id="path114" />
  <path
     d=""
     fill="#000000"
     transform="translate(0,0)"
     id="path115" />
  <path
     d=""
     fill="#000000"
     transform="translate(0,0)"
     id="path116" />
  <path
     d=""
     fill="#000000"
     transform="translate(0,0)"
     id="path117" />
  <path
     d=""
     fill="#000000"
     transform="translate(0,0)"
     id="path118" />
  <path
     d=""
     fill="#000000"
     transform="translate(0,0)"
     id="path119" />
  <path
     d=""
     fill="#000000"
     transform="translate(0,0)"
     id="path120" />
  <path
     d=""
     fill="#000000"
     transform="translate(0,0)"
     id="path121" />
  <path
     d=""
     fill="#000000"
     transform="translate(0,0)"
     id="path122" />
  <path
     d=""
     fill="#000000"
     transform="translate(0,0)"
     id="path123" />
  <path
     d=""
     fill="#000000"
     transform="translate(0,0)"
     id="path124" />
  <path
     d=""
     fill="#FFFFFF"
     transform="translate(0,0)"
     id="path125" />
  <path
     d=""
     fill="#000000"
     transform="translate(0,0)"
     id="path126" />
  <path
     d=""
     fill="#FFFFFF"
     transform="translate(0,0)"
     id="path127" />
  <path
     d=""
     fill="#000000"
     transform="translate(0,0)"
     id="path128" />
  <path
     d=""
     fill="#000000"
     transform="translate(0,0)"
     id="path129" />
  <path
     d=""
     fill="#000000"
     transform="translate(0,0)"
     id="path130" />
  <path
     d=""
     fill="#FFFFFF"
     transform="translate(0,0)"
     id="path131" />
  <path
     d=""
     fill="#000000"
     transform="translate(0,0)"
     id="path132" />
  <path
     d=""
     fill="#000000"
     transform="translate(0,0)"
     id="path133" />
  <path
     d=""
     fill="#000000"
     transform="translate(0,0)"
     id="path134" />
  <path
     d=""
     fill="#000000"
     transform="translate(0,0)"
     id="path135" />
  <path
     d=""
     fill="#000000"
     transform="translate(0,0)"
     id="path136" />
  <path
     d=""
     fill="#000000"
     transform="translate(0,0)"
     id="path137" />
  <path
     d=""
     fill="#000000"
     transform="translate(0,0)"
     id="path138" />
  <path
     d=""
     fill="#000000"
     transform="translate(0,0)"
     id="path139" />
  <path
     d=""
     fill="#000000"
     transform="translate(0,0)"
     id="path140" />
  <path
     d=""
     fill="#000000"
     transform="translate(0,0)"
     id="path141" />
  <path
     d=""
     fill="#000000"
     transform="translate(0,0)"
     id="path142" />
  <path
     d=""
     fill="#000000"
     transform="translate(0,0)"
     id="path143" />
  <path
     d=""
     fill="#000000"
     transform="translate(0,0)"
     id="path144" />
  <path
     d=""
     fill="#000000"
     transform="translate(0,0)"
     id="path145" />
  <path
     d=""
     fill="#000000"
     transform="translate(0,0)"
     id="path146" />
  <path
     d=""
     fill="#000000"
     transform="translate(0,0)"
     id="path147" />
  <path
     d=""
     fill="#000000"
     transform="translate(0,0)"
     id="path148" />
  <path
     d=""
     fill="#000000"
     transform="translate(0,0)"
     id="path149" />
  <path
     d=""
     fill="#000000"
     transform="translate(0,0)"
     id="path150" />
  <path
     d=""
     fill="#000000"
     transform="translate(0,0)"
     id="path151" />
  <path
     d=""
     fill="#000000"
     transform="translate(0,0)"
     id="path152" />
  <path
     d=""
     fill="#000000"
     transform="translate(0,0)"
     id="path153" />
  <path
     d=""
     fill="#000000"
     transform="translate(0,0)"
     id="path154" />
  <path
     d=""
     fill="#000000"
     transform="translate(0,0)"
     id="path155" />
  <path
     d=""
     fill="#000000"
     transform="translate(0,0)"
     id="path156" />
  <path
     d=""
     fill="#000000"
     transform="translate(0,0)"
     id="path157" />
  <path
     d=""
     fill="#000000"
     transform="translate(0,0)"
     id="path158" />
  <path
     d=""
     fill="#000000"
     transform="translate(0,0)"
     id="path159" />
  <path
     d=""
     fill="#000000"
     transform="translate(0,0)"
     id="path160" />
  <path
     d=""
     fill="#000000"
     transform="translate(0,0)"
     id="path161" />
  <path
     d=""
     fill="#000000"
     transform="translate(0,0)"
     id="path162" />
  <path
     d=""
     fill="#000000"
     transform="translate(0,0)"
     id="path163" />
  <path
     d=""
     fill="#000000"
     transform="translate(0,0)"
     id="path164" />
  <path
     d=""
     fill="#FFFFFF"
     transform="translate(0,0)"
     id="path165" />
  <path
     d=""
     fill="#FFFFFF"
     transform="translate(0,0)"
     id="path166" />
  <path
     d=""
     fill="#000000"
     transform="translate(0,0)"
     id="path167" />
  <path
     d=""
     fill="#000000"
     transform="translate(0,0)"
     id="path168" />
  <path
     d=""
     fill="#FFFFFF"
     transform="translate(0,0)"
     id="path169" />
  <path
     d=""
     fill="#FFFFFF"
     transform="translate(0,0)"
     id="path170" />
  <path
     d=""
     fill="#FFFFFF"
     transform="translate(0,0)"
     id="path171" />
  <path
     d=""
     fill="#000000"
     transform="translate(0,0)"
     id="path172" />
  <path
     d=""
     fill="#000000"
     transform="translate(0,0)"
     id="path173" />
  <path
     d=""
     fill="#000000"
     transform="translate(0,0)"
     id="path174" />
  <path
     d=""
     fill="#000000"
     transform="translate(0,0)"
     id="path175" />
  <path
     d=""
     fill="#000000"
     transform="translate(0,0)"
     id="path176" />
  <path
     d=""
     fill="#000000"
     transform="translate(0,0)"
     id="path177" />
  <path
     d=""
     fill="#000000"
     transform="translate(0,0)"
     id="path178" />
  <path
     d=""
     fill="#000000"
     transform="translate(0,0)"
     id="path179" />
  <path
     d=""
     fill="#000000"
     transform="translate(0,0)"
     id="path180" />
  <path
     d=""
     fill="#000000"
     transform="translate(0,0)"
     id="path181" />
  <path
     d=""
     fill="#000000"
     transform="translate(0,0)"
     id="path182" />
  <path
     d=""
     fill="#000000"
     transform="translate(0,0)"
     id="path183" />
  <path
     d=""
     fill="#000000"
     transform="translate(0,0)"
     id="path184" />
  <path
     d=""
     fill="#000000"
     transform="translate(0,0)"
     id="path185" />
  <path
     d=""
     fill="#000000"
     transform="translate(0,0)"
     id="path186" />
  <path
     d=""
     fill="#000000"
     transform="translate(0,0)"
     id="path187" />
  <path
     d=""
     fill="#000000"
     transform="translate(0,0)"
     id="path188" />
  <path
     d=""
     fill="#000000"
     transform="translate(0,0)"
     id="path189" />
  <path
     d=""
     fill="#000000"
     transform="translate(0,0)"
     id="path190" />
  <path
     d=""
     fill="#FFFFFF"
     transform="translate(0,0)"
     id="path191" />
  <path
     d=""
     fill="#000000"
     transform="translate(0,0)"
     id="path192" />
  <path
     d=""
     fill="#FFFFFF"
     transform="translate(0,0)"
     id="path193" />
  <path
     d=""
     fill="#000000"
     transform="translate(0,0)"
     id="path194" />
  <path
     d=""
     fill="#FFFFFF"
     transform="translate(0,0)"
     id="path195" />
  <path
     d=""
     fill="#000000"
     transform="translate(0,0)"
     id="path196" />
  <path
     d=""
     fill="#000000"
     transform="translate(0,0)"
     id="path197" />
  <path
     d=""
     fill="#000000"
     transform="translate(0,0)"
     id="path198" />
  <path
     d=""
     fill="#000000"
     transform="translate(0,0)"
     id="path199" />
  <path
     d=""
     fill="#000000"
     transform="translate(0,0)"
     id="path200" />
  <path
     d=""
     fill="#000000"
     transform="translate(0,0)"
     id="path201" />
  <path
     d=""
     fill="#000000"
     transform="translate(0,0)"
     id="path202" />
  <path
     d=""
     fill="#000000"
     transform="translate(0,0)"
     id="path203" />
  <path
     d=""
     fill="#000000"
     transform="translate(0,0)"
     id="path204" />
  <path
     d=""
     fill="#000000"
     transform="translate(0,0)"
     id="path205" />
  <path
     d=""
     fill="#000000"
     transform="translate(0,0)"
     id="path206" />
  <path
     d=""
     fill="#000000"
     transform="translate(0,0)"
     id="path207" />
  <path
     d=""
     fill="#000000"
     transform="translate(0,0)"
     id="path208" />
  <path
     d=""
     fill="#000000"
     transform="translate(0,0)"
     id="path209" />
  <path
     d=""
     fill="#000000"
     transform="translate(0,0)"
     id="path210" />
  <path
     d=""
     fill="#000000"
     transform="translate(0,0)"
     id="path211" />
  <path
     d=""
     fill="#000000"
     transform="translate(0,0)"
     id="path212" />
  <path
     d=""
     fill="#000000"
     transform="translate(0,0)"
     id="path213" />
  <path
     d=""
     fill="#000000"
     transform="translate(0,0)"
     id="path214" />
  <path
     d=""
     fill="#000000"
     transform="translate(0,0)"
     id="path215" />
  <path
     d=""
     fill="#000000"
     transform="translate(0,0)"
     id="path216" />
  <path
     d=""
     fill="#000000"
     transform="translate(0,0)"
     id="path217" />
  <path
     d=""
     fill="#000000"
     transform="translate(0,0)"
     id="path218" />
  <path
     d=""
     fill="#000000"
     transform="translate(0,0)"
     id="path219" />
  <path
     d=""
     fill="#000000"
     transform="translate(0,0)"
     id="path220" />
  <path
     d=""
     fill="#000000"
     transform="translate(0,0)"
     id="path221" />
  <path
     d=""
     fill="#000000"
     transform="translate(0,0)"
     id="path222" />
  <path
     d=""
     fill="#000000"
     transform="translate(0,0)"
     id="path223" />
  <path
     d=""
     fill="#000000"
     transform="translate(0,0)"
     id="path224" />
  <path
     d=""
     fill="#000000"
     transform="translate(0,0)"
     id="path225" />
  <path
     d=""
     fill="#000000"
     transform="translate(0,0)"
     id="path226" />
  <path
     d=""
     fill="#000000"
     transform="translate(0,0)"
     id="path227" />
  <path
     d=""
     fill="#000000"
     transform="translate(0,0)"
     id="path228" />
  <path
     d=""
     fill="#000000"
     transform="translate(0,0)"
     id="path229" />
  <path
     d=""
     fill="#FFFFFF"
     transform="translate(0,0)"
     id="path230" />
  <path
     d=""
     fill="#000000"
     transform="translate(0,0)"
     id="path231" />
  <path
     d=""
     fill="#000000"
     transform="translate(0,0)"
     id="path232" />
  <path
     d=""
     fill="#000000"
     transform="translate(0,0)"
     id="path233" />
  <path
     d=""
     fill="#FFFFFF"
     transform="translate(0,0)"
     id="path234" />
  <path
     d=""
     fill="#FFFFFF"
     transform="translate(0,0)"
     id="path235" />
  <path
     d=""
     fill="#000000"
     transform="translate(0,0)"
     id="path236" />
  <path
     d=""
     fill="#FFFFFF"
     transform="translate(0,0)"
     id="path237" />
  <path
     d=""
     fill="#000000"
     transform="translate(0,0)"
     id="path238" />
  <path
     d=""
     fill="#000000"
     transform="translate(0,0)"
     id="path239" />
  <path
     d=""
     fill="#FFFFFF"
     transform="translate(0,0)"
     id="path240" />
  <path
     d=""
     fill="#000000"
     transform="translate(0,0)"
     id="path241" />
  <path
     d=""
     fill="#000000"
     transform="translate(0,0)"
     id="path242" />
  <path
     d=""
     fill="#000000"
     transform="translate(0,0)"
     id="path243" />
  <path
     d=""
     fill="#000000"
     transform="translate(0,0)"
     id="path244" />
  <path
     d=""
     fill="#000000"
     transform="translate(0,0)"
     id="path245" />
  <path
     d=""
     fill="#000000"
     transform="translate(0,0)"
     id="path246" />
  <path
     d=""
     fill="#000000"
     transform="translate(0,0)"
     id="path247" />
  <path
     d=""
     fill="#000000"
     transform="translate(0,0)"
     id="path248" />
  <path
     d=""
     fill="#000000"
     transform="translate(0,0)"
     id="path249" />
  <path
     d=""
     fill="#000000"
     transform="translate(0,0)"
     id="path250" />
  <path
     d=""
     fill="#000000"
     transform="translate(0,0)"
     id="path251" />
  <path
     d=""
     fill="#000000"
     transform="translate(0,0)"
     id="path252" />
  <path
     d=""
     fill="#000000"
     transform="translate(0,0)"
     id="path253" />
  <path
     d=""
     fill="#000000"
     transform="translate(0,0)"
     id="path254" />
  <path
     d=""
     fill="#FFFFFF"
     transform="translate(0,0)"
     id="path255" />
  <path
     d=""
     fill="#000000"
     transform="translate(0,0)"
     id="path256" />
  <path
     d=""
     fill="#000000"
     transform="translate(0,0)"
     id="path257" />
  <path
     d=""
     fill="#000000"
     transform="translate(0,0)"
     id="path258" />
  <path
     d=""
     fill="#000000"
     transform="translate(0,0)"
     id="path259" />
  <path
     d=""
     fill="#000000"
     transform="translate(0,0)"
     id="path260" />
  <path
     d=""
     fill="#000000"
     transform="translate(0,0)"
     id="path261" />
  <path
     d=""
     fill="#000000"
     transform="translate(0,0)"
     id="path262" />
  <path
     d=""
     fill="#000000"
     transform="translate(0,0)"
     id="path263" />
  <path
     d=""
     fill="#000000"
     transform="translate(0,0)"
     id="path264" />
  <path
     d=""
     fill="#000000"
     transform="translate(0,0)"
     id="path265" />
  <path
     d=""
     fill="#000000"
     transform="translate(0,0)"
     id="path266" />
  <path
     d=""
     fill="#000000"
     transform="translate(0,0)"
     id="path267" />
  <path
     d=""
     fill="#000000"
     transform="translate(0,0)"
     id="path268" />
  <path
     d=""
     fill="#000000"
     transform="translate(0,0)"
     id="path269" />
  <path
     d=""
     fill="#FFFFFF"
     transform="translate(0,0)"
     id="path270" />
  <path
     d=""
     fill="#000000"
     transform="translate(0,0)"
     id="path271" />
  <path
     d=""
     fill="#000000"
     transform="translate(0,0)"
     id="path272" />
  <path
     d=""
     fill="#FFFFFF"
     transform="translate(0,0)"
     id="path273" />
  <path
     d=""
     fill="#000000"
     transform="translate(0,0)"
     id="path274" />
  <path
     d=""
     fill="#000000"
     transform="translate(0,0)"
     id="path275" />
  <path
     d=""
     fill="#000000"
     transform="translate(0,0)"
     id="path276" />
  <path
     d=""
     fill="#000000"
     transform="translate(0,0)"
     id="path277" />
  <path
     d=""
     fill="#000000"
     transform="translate(0,0)"
     id="path278" />
  <path
     d=""
     fill="#000000"
     transform="translate(0,0)"
     id="path279" />
  <path
     d=""
     fill="#000000"
     transform="translate(0,0)"
     id="path280" />
  <path
     d=""
     fill="#000000"
     transform="translate(0,0)"
     id="path281" />
  <path
     d=""
     fill="#000000"
     transform="translate(0,0)"
     id="path282" />
  <path
     d=""
     fill="#000000"
     transform="translate(0,0)"
     id="path283" />
  <path
     d=""
     fill="#FFFFFF"
     transform="translate(0,0)"
     id="path284" />
  <path
     d=""
     fill="#000000"
     transform="translate(0,0)"
     id="path285" />
  <path
     d=""
     fill="#000000"
     transform="translate(0,0)"
     id="path286" />
  <path
     d=""
     fill="#FFFFFF"
     transform="translate(0,0)"
     id="path287" />
  <path
     d=""
     fill="#FFFFFF"
     transform="translate(0,0)"
     id="path288" />
  <path
     d=""
     fill="#000000"
     transform="translate(0,0)"
     id="path289" />
  <path
     d=""
     fill="#FFFFFF"
     transform="translate(0,0)"
     id="path290" />
  <path
     d=""
     fill="#FFFFFF"
     transform="translate(0,0)"
     id="path291" />
  <path
     d=""
     fill="#000000"
     transform="translate(0,0)"
     id="path292" />
  <path
     d=""
     fill="#000000"
     transform="translate(0,0)"
     id="path293" />
  <path
     d=""
     fill="#FFFFFF"
     transform="translate(0,0)"
     id="path294" />
  <path
     d=""
     fill="#000000"
     transform="translate(0,0)"
     id="path295" />
  <path
     d=""
     fill="#000000"
     transform="translate(0,0)"
     id="path296" />
  <path
     d=""
     fill="#000000"
     transform="translate(0,0)"
     id="path297" />
  <path
     d=""
     fill="#000000"
     transform="translate(0,0)"
     id="path298" />
  <path
     d=""
     fill="#FFFFFF"
     transform="translate(0,0)"
     id="path299" />
  <path
     d=""
     fill="#000000"
     transform="translate(0,0)"
     id="path300" />
  <path
     d=""
     fill="#000000"
     transform="translate(0,0)"
     id="path301" />
  <path
     d=""
     fill="#000000"
     transform="translate(0,0)"
     id="path302" />
  <path
     d=""
     fill="#000000"
     transform="translate(0,0)"
     id="path303" />
  <path
     d=""
     fill="#FFFFFF"
     transform="translate(0,0)"
     id="path304" />
  <path
     d=""
     fill="#FFFFFF"
     transform="translate(0,0)"
     id="path305" />
  <path
     d=""
     fill="#000000"
     transform="translate(0,0)"
     id="path306" />
  <path
     d=""
     fill="#000000"
     transform="translate(0,0)"
     id="path307" />
  <path
     d=""
     fill="#000000"
     transform="translate(0,0)"
     id="path308" />
  <path
     d=""
     fill="#000000"
     transform="translate(0,0)"
     id="path309" />
  <path
     d=""
     fill="#000000"
     transform="translate(0,0)"
     id="path310" />
  <path
     d=""
     fill="#FFFFFF"
     transform="translate(0,0)"
     id="path311" />
  <path
     d=""
     fill="#000000"
     transform="translate(0,0)"
     id="path312" />
  <path
     d=""
     fill="#FFFFFF"
     transform="translate(0,0)"
     id="path313" />
  <path
     d=""
     fill="#000000"
     transform="translate(0,0)"
     id="path314" />
  <path
     d=""
     fill="#000000"
     transform="translate(0,0)"
     id="path315" />
  <path
     d=""
     fill="#000000"
     transform="translate(0,0)"
     id="path316" />
  <path
     d=""
     fill="#000000"
     transform="translate(0,0)"
     id="path317" />
  <path
     d=""
     fill="#000000"
     transform="translate(0,0)"
     id="path318" />
  <path
     d=""
     fill="#000000"
     transform="translate(0,0)"
     id="path319" />
  <path
     d=""
     fill="#000000"
     transform="translate(0,0)"
     id="path320" />
  <path
     d=""
     fill="#000000"
     transform="translate(0,0)"
     id="path321" />
  <path
     d=""
     fill="#FFFFFF"
     transform="translate(0,0)"
     id="path322" />
  <path
     d=""
     fill="#FFFFFF"
     transform="translate(0,0)"
     id="path323" />
  <path
     d=""
     fill="#000000"
     transform="translate(0,0)"
     id="path324" />
  <path
     d=""
     fill="#000000"
     transform="translate(0,0)"
     id="path325" />
  <path
     d=""
     fill="#FFFFFF"
     transform="translate(0,0)"
     id="path326" />
  <path
     d=""
     fill="#FFFFFF"
     transform="translate(0,0)"
     id="path327" />
  <path
     d=""
     fill="#FFFFFF"
     transform="translate(0,0)"
     id="path328" />
  <path
     d=""
     fill="#FFFFFF"
     transform="translate(0,0)"
     id="path329" />
  <path
     d=""
     fill="#000000"
     transform="translate(0,0)"
     id="path330" />
  <path
     d=""
     fill="#000000"
     transform="translate(0,0)"
     id="path331" />
  <path
     d=""
     fill="#000000"
     transform="translate(0,0)"
     id="path332" />
  <path
     d=""
     fill="#000000"
     transform="translate(0,0)"
     id="path333" />
  <path
     d=""
     fill="#000000"
     transform="translate(0,0)"
     id="path334" />
  <path
     d=""
     fill="#000000"
     transform="translate(0,0)"
     id="path335" />
  <path
     d=""
     fill="#000000"
     transform="translate(0,0)"
     id="path336" />
  <path
     d=""
     fill="#000000"
     transform="translate(0,0)"
     id="path337" />
  <path
     d=""
     fill="#000000"
     transform="translate(0,0)"
     id="path338" />
  <path
     d=""
     fill="#000000"
     transform="translate(0,0)"
     id="path339" />
  <path
     d=""
     fill="#000000"
     transform="translate(0,0)"
     id="path340" />
  <path
     d=""
     fill="#FFFFFF"
     transform="translate(0,0)"
     id="path341" />
  <path
     d=""
     fill="#FFFFFF"
     transform="translate(0,0)"
     id="path342" />
  <path
     d=""
     fill="#000000"
     transform="translate(0,0)"
     id="path343" />
  <path
     d=""
     fill="#FFFFFF"
     transform="translate(0,0)"
     id="path344" />
  <path
     d=""
     fill="#FFFFFF"
     transform="translate(0,0)"
     id="path345" />
  <path
     d=""
     fill="#000000"
     transform="translate(0,0)"
     id="path346" />
  <path
     d=""
     fill="#000000"
     transform="translate(0,0)"
     id="path347" />
  <path
     d=""
     fill="#000000"
     transform="translate(0,0)"
     id="path348" />
  <path
     d=""
     fill="#000000"
     transform="translate(0,0)"
     id="path349" />
  <path
     d=""
     fill="#000000"
     transform="translate(0,0)"
     id="path350" />
  <path
     d=""
     fill="#FFFFFF"
     transform="translate(0,0)"
     id="path351" />
</svg>
